<svg width="179" height="182" viewBox="0 0 179 182" fill="none" xmlns="http://www.w3.org/2000/svg">
<mask id="path-1-outside-1_112_42" maskUnits="userSpaceOnUse" x="0" y="0" width="179" height="182" fill="black">
<rect fill="white" width="179" height="182"/>
<path d="M23.125 58.4375C24.1667 57.1875 24.7917 54.8958 25 51.5625C25.4167 48.0208 26.25 44.0625 27.5 39.6875C28.9583 35.3125 31.3542 30.7292 34.6875 25.9375C38.0208 21.1458 43.4375 16.6667 50.9375 12.5C58.2292 8.33333 65.3125 5.83333 72.1875 5C79.0625 4.16667 85.625 4.47917 91.875 5.9375C98.125 7.39583 103.958 9.6875 109.375 12.8125C115 15.9375 120.104 19.375 124.688 23.125C127.812 25.625 130.312 29.2708 132.188 34.0625C134.062 38.6458 135.521 43.8542 136.562 49.6875C137.604 55.5208 138.333 61.6667 138.75 68.125C139.375 74.375 139.792 80.5208 140 86.5625C140.208 92.3958 140.312 97.8125 140.312 102.812C140.521 107.604 140.938 111.562 141.562 114.688C142.396 119.271 143.854 123.229 145.938 126.562C148.021 129.688 150.312 132.396 152.812 134.688C155.312 136.771 157.812 138.438 160.312 139.688C162.812 140.938 165 141.875 166.875 142.5C168.125 143.125 169.271 143.542 170.312 143.75C172.396 144.583 173.854 144.583 174.688 143.75C173.438 146.667 172.292 149.167 171.25 151.25C170.208 153.333 169.375 155.104 168.75 156.562C167.917 158.229 167.188 159.583 166.562 160.625C165.938 161.875 165.208 163.021 164.375 164.062C163.75 165.104 162.917 166.25 161.875 167.5C160.833 168.75 159.792 170.104 158.75 171.562C156.042 170.521 153.438 169.271 150.938 167.812C148.646 166.354 146.562 165 144.688 163.75C142.396 162.292 140.312 160.833 138.438 159.375C136.562 157.917 134.792 156.25 133.125 154.375C131.667 152.708 130.104 150.938 128.438 149.062C126.979 147.188 125.729 145.104 124.688 142.812C123.438 145.521 120.417 149.375 115.625 154.375C111.042 159.375 105 163.958 97.5 168.125C90 172.083 81.25 174.896 71.25 176.562C61.4583 178.229 50.625 177.083 38.75 173.125C33.5417 171.458 28.6458 169.062 24.0625 165.938C19.4792 162.604 15.5208 158.646 12.1875 154.062C9.0625 149.479 6.77083 144.271 5.3125 138.438C4.0625 132.396 4.16667 125.729 5.625 118.438C7.08333 111.146 9.6875 105 13.4375 100C17.1875 95 21.6667 90.9375 26.875 87.8125C32.0833 84.6875 37.9167 82.2917 44.375 80.625C50.8333 78.9583 57.5 77.8125 64.375 77.1875C69.7917 76.9792 75.2083 77.2917 80.625 78.125C85.2083 78.9583 90 80.5208 95 82.8125C100 84.8958 104.271 88.125 107.812 92.5C107.604 81.4583 107.188 72.7083 106.562 66.25C106.146 59.5833 105.729 54.4792 105.312 50.9375C104.479 46.7708 103.75 43.8542 103.125 42.1875C102.083 40.7292 100.938 39.0625 99.6875 37.1875C98.6458 35.3125 97.2917 33.6458 95.625 32.1875C93.9583 30.5208 91.875 29.1667 89.375 28.125C86.875 27.0833 83.9583 26.6667 80.625 26.875C77.0833 27.0833 74.2708 28.0208 72.1875 29.6875C70.1042 31.3542 68.4375 33.3333 67.1875 35.625C66.1458 37.7083 65.5208 40 65.3125 42.5C65.1042 45 65.2083 47.1875 65.625 49.0625C66.0417 50.3125 66.6667 51.6667 67.5 53.125C68.3333 54.375 69.4792 55.7292 70.9375 57.1875C72.3958 58.6458 74.375 59.8958 76.875 60.9375C72.0833 61.5625 67.8125 62.0833 64.0625 62.5C60.3125 62.7083 57.0833 63.0208 54.375 63.4375C51.25 63.8542 48.5417 64.1667 46.25 64.375C43.9583 64.5833 41.25 65 38.125 65.625C35.4167 66.0417 32.0833 66.5625 28.125 67.1875C24.1667 67.8125 19.5833 68.6458 14.375 69.6875C15.625 68.2292 16.7708 66.875 17.8125 65.625C18.8542 64.1667 19.7917 62.9167 20.625 61.875C21.4583 60.625 22.2917 59.4792 23.125 58.4375ZM70 95.625C66.25 95.8333 62.5 96.7708 58.75 98.4375C55 99.8958 51.6667 102.083 48.75 105C45.8333 107.708 43.3333 110.938 41.25 114.688C39.375 118.229 38.4375 122.188 38.4375 126.562C38.4375 130.938 39.4792 134.792 41.5625 138.125C43.8542 141.25 46.7708 143.854 50.3125 145.938C54.0625 148.021 58.0208 149.271 62.1875 149.688C66.5625 150.104 70.8333 149.688 75 148.438C78.9583 146.979 82.7083 144.688 86.25 141.562C89.7917 138.229 92.8125 134.688 95.3125 130.938C97.8125 126.979 99.5833 123.125 100.625 119.375C101.667 115.417 101.771 112.188 100.938 109.688C99.2708 104.271 95.5208 100.521 89.6875 98.4375C83.8542 96.1458 77.2917 95.2083 70 95.625Z"/>
</mask>
<path d="M23.125 58.4375C24.1667 57.1875 24.7917 54.8958 25 51.5625C25.4167 48.0208 26.25 44.0625 27.5 39.6875C28.9583 35.3125 31.3542 30.7292 34.6875 25.9375C38.0208 21.1458 43.4375 16.6667 50.9375 12.5C58.2292 8.33333 65.3125 5.83333 72.1875 5C79.0625 4.16667 85.625 4.47917 91.875 5.9375C98.125 7.39583 103.958 9.6875 109.375 12.8125C115 15.9375 120.104 19.375 124.688 23.125C127.812 25.625 130.312 29.2708 132.188 34.0625C134.062 38.6458 135.521 43.8542 136.562 49.6875C137.604 55.5208 138.333 61.6667 138.75 68.125C139.375 74.375 139.792 80.5208 140 86.5625C140.208 92.3958 140.312 97.8125 140.312 102.812C140.521 107.604 140.938 111.562 141.562 114.688C142.396 119.271 143.854 123.229 145.938 126.562C148.021 129.688 150.312 132.396 152.812 134.688C155.312 136.771 157.812 138.438 160.312 139.688C162.812 140.938 165 141.875 166.875 142.5C168.125 143.125 169.271 143.542 170.312 143.75C172.396 144.583 173.854 144.583 174.688 143.75C173.438 146.667 172.292 149.167 171.25 151.25C170.208 153.333 169.375 155.104 168.75 156.562C167.917 158.229 167.188 159.583 166.562 160.625C165.938 161.875 165.208 163.021 164.375 164.062C163.75 165.104 162.917 166.25 161.875 167.5C160.833 168.75 159.792 170.104 158.75 171.562C156.042 170.521 153.438 169.271 150.938 167.812C148.646 166.354 146.562 165 144.688 163.75C142.396 162.292 140.312 160.833 138.438 159.375C136.562 157.917 134.792 156.25 133.125 154.375C131.667 152.708 130.104 150.938 128.438 149.062C126.979 147.188 125.729 145.104 124.688 142.812C123.438 145.521 120.417 149.375 115.625 154.375C111.042 159.375 105 163.958 97.5 168.125C90 172.083 81.25 174.896 71.25 176.562C61.4583 178.229 50.625 177.083 38.75 173.125C33.5417 171.458 28.6458 169.062 24.0625 165.938C19.4792 162.604 15.5208 158.646 12.1875 154.062C9.0625 149.479 6.77083 144.271 5.3125 138.438C4.0625 132.396 4.16667 125.729 5.625 118.438C7.08333 111.146 9.6875 105 13.4375 100C17.1875 95 21.6667 90.9375 26.875 87.8125C32.0833 84.6875 37.9167 82.2917 44.375 80.625C50.8333 78.9583 57.5 77.8125 64.375 77.1875C69.7917 76.9792 75.2083 77.2917 80.625 78.125C85.2083 78.9583 90 80.5208 95 82.8125C100 84.8958 104.271 88.125 107.812 92.5C107.604 81.4583 107.188 72.7083 106.562 66.25C106.146 59.5833 105.729 54.4792 105.312 50.9375C104.479 46.7708 103.75 43.8542 103.125 42.1875C102.083 40.7292 100.938 39.0625 99.6875 37.1875C98.6458 35.3125 97.2917 33.6458 95.625 32.1875C93.9583 30.5208 91.875 29.1667 89.375 28.125C86.875 27.0833 83.9583 26.6667 80.625 26.875C77.0833 27.0833 74.2708 28.0208 72.1875 29.6875C70.1042 31.3542 68.4375 33.3333 67.1875 35.625C66.1458 37.7083 65.5208 40 65.3125 42.5C65.1042 45 65.2083 47.1875 65.625 49.0625C66.0417 50.3125 66.6667 51.6667 67.5 53.125C68.3333 54.375 69.4792 55.7292 70.9375 57.1875C72.3958 58.6458 74.375 59.8958 76.875 60.9375C72.0833 61.5625 67.8125 62.0833 64.0625 62.5C60.3125 62.7083 57.0833 63.0208 54.375 63.4375C51.25 63.8542 48.5417 64.1667 46.25 64.375C43.9583 64.5833 41.25 65 38.125 65.625C35.4167 66.0417 32.0833 66.5625 28.125 67.1875C24.1667 67.8125 19.5833 68.6458 14.375 69.6875C15.625 68.2292 16.7708 66.875 17.8125 65.625C18.8542 64.1667 19.7917 62.9167 20.625 61.875C21.4583 60.625 22.2917 59.4792 23.125 58.4375ZM70 95.625C66.25 95.8333 62.5 96.7708 58.75 98.4375C55 99.8958 51.6667 102.083 48.75 105C45.8333 107.708 43.3333 110.938 41.25 114.688C39.375 118.229 38.4375 122.188 38.4375 126.562C38.4375 130.938 39.4792 134.792 41.5625 138.125C43.8542 141.25 46.7708 143.854 50.3125 145.938C54.0625 148.021 58.0208 149.271 62.1875 149.688C66.5625 150.104 70.8333 149.688 75 148.438C78.9583 146.979 82.7083 144.688 86.25 141.562C89.7917 138.229 92.8125 134.688 95.3125 130.938C97.8125 126.979 99.5833 123.125 100.625 119.375C101.667 115.417 101.771 112.188 100.938 109.688C99.2708 104.271 95.5208 100.521 89.6875 98.4375C83.8542 96.1458 77.2917 95.2083 70 95.625Z" fill="white"/>
<path d="M23.125 58.4375L20.0521 55.8768L20.0265 55.9075L20.0015 55.9387L23.125 58.4375ZM25 51.5625L21.0274 51.0951L21.0146 51.2038L21.0078 51.313L25 51.5625ZM27.5 39.6875L23.7053 38.4226L23.6778 38.505L23.6539 38.5886L27.5 39.6875ZM34.6875 25.9375L37.9711 28.2218L34.6875 25.9375ZM50.9375 12.5L52.8801 15.9966L52.9011 15.9849L52.9221 15.973L50.9375 12.5ZM109.375 12.8125L107.376 16.2772L107.404 16.2934L107.432 16.3091L109.375 12.8125ZM124.688 23.125L122.155 26.2208L122.172 26.2347L122.189 26.2485L124.688 23.125ZM132.188 34.0625L128.463 35.5201L128.474 35.5487L128.485 35.577L132.188 34.0625ZM138.75 68.125L134.758 68.3825L134.763 68.4529L134.77 68.523L138.75 68.125ZM140 86.5625L136.002 86.7003L136.003 86.7053L140 86.5625ZM140.312 102.812H136.312V102.899L136.316 102.986L140.312 102.812ZM141.562 114.688L145.498 113.972L145.492 113.937L145.485 113.903L141.562 114.688ZM145.938 126.562L142.546 128.682L142.577 128.732L142.609 128.781L145.938 126.562ZM152.812 134.688L150.11 137.636L150.179 137.7L150.252 137.76L152.812 134.688ZM166.875 142.5L168.664 138.922L168.41 138.795L168.14 138.705L166.875 142.5ZM170.312 143.75L171.798 140.036L171.457 139.9L171.097 139.828L170.312 143.75ZM174.688 143.75L178.364 145.326L171.859 140.922L174.688 143.75ZM168.75 156.562L172.328 158.351L172.38 158.246L172.427 158.138L168.75 156.562ZM166.562 160.625L163.133 158.567L163.053 158.699L162.985 158.836L166.562 160.625ZM164.375 164.062L161.252 161.564L161.083 161.774L160.945 162.005L164.375 164.062ZM158.75 171.562L157.314 175.296L160.205 176.408L162.005 173.887L158.75 171.562ZM150.938 167.812L148.79 171.187L148.855 171.229L148.922 171.268L150.938 167.812ZM144.688 163.75L146.906 160.422L146.871 160.398L146.835 160.375L144.688 163.75ZM133.125 154.375L130.115 157.009L130.125 157.021L130.135 157.032L133.125 154.375ZM128.438 149.062L125.28 151.518L125.361 151.622L125.448 151.72L128.438 149.062ZM124.688 142.812L128.329 141.157L124.715 133.207L121.056 141.136L124.688 142.812ZM115.625 154.375L112.737 151.607L112.706 151.639L112.676 151.672L115.625 154.375ZM97.5 168.125L99.367 171.663L99.405 171.642L99.4426 171.622L97.5 168.125ZM71.25 176.562L70.5924 172.617L70.5788 172.619L71.25 176.562ZM38.75 173.125L40.0149 169.33L39.9921 169.323L39.9691 169.315L38.75 173.125ZM24.0625 165.938L21.7098 169.172L21.759 169.208L21.8092 169.242L24.0625 165.938ZM12.1875 154.062L8.88259 156.316L8.91682 156.366L8.95256 156.415L12.1875 154.062ZM5.3125 138.438L1.39546 139.248L1.41206 139.328L1.43193 139.408L5.3125 138.438ZM64.375 77.1875L64.2213 73.1905L64.1169 73.1945L64.0129 73.2039L64.375 77.1875ZM80.625 78.125L81.3405 74.1895L81.287 74.1798L81.2332 74.1715L80.625 78.125ZM95 82.8125L93.3334 86.4488L93.397 86.4779L93.4615 86.5048L95 82.8125ZM107.812 92.5L104.704 95.0168L112.031 104.069L111.812 92.4245L107.812 92.5ZM106.562 66.25L102.57 66.4995L102.575 66.5675L102.581 66.6353L106.562 66.25ZM105.312 50.9375L109.285 50.4701L109.266 50.3106L109.235 50.153L105.312 50.9375ZM103.125 42.1875L106.87 40.783L106.686 40.2905L106.38 39.8625L103.125 42.1875ZM99.6875 37.1875L96.1909 39.1301L96.2695 39.2716L96.3593 39.4063L99.6875 37.1875ZM95.625 32.1875L92.7966 35.0159L92.8907 35.1101L92.991 35.1978L95.625 32.1875ZM80.625 26.875L80.8599 30.8681L80.8672 30.8677L80.8745 30.8672L80.625 26.875ZM67.1875 35.625L63.6759 33.7096L63.6417 33.7723L63.6098 33.8361L67.1875 35.625ZM65.625 49.0625L61.7203 49.9302L61.765 50.1317L61.8303 50.3274L65.625 49.0625ZM67.5 53.125L64.027 55.1096L64.0954 55.2292L64.1718 55.3438L67.5 53.125ZM76.875 60.9375L77.3924 64.9039L92.1687 62.9765L78.4135 57.2452L76.875 60.9375ZM64.0625 62.5L64.2844 66.4938L64.3946 66.4877L64.5042 66.4755L64.0625 62.5ZM54.375 63.4375L54.9037 67.4024L54.9435 67.3971L54.9832 67.391L54.375 63.4375ZM38.125 65.625L38.7332 69.5785L38.8217 69.5649L38.9095 69.5473L38.125 65.625ZM14.375 69.6875L11.338 67.0843L3.79682 75.8824L15.1595 73.6098L14.375 69.6875ZM17.8125 65.625L20.8854 68.1857L20.9808 68.0712L21.0674 67.95L17.8125 65.625ZM20.625 61.875L23.7485 64.3738L23.8569 64.2382L23.9532 64.0938L20.625 61.875ZM70 95.625L70.2219 99.6188L70.2282 99.6185L70 95.625ZM58.75 98.4375L60.1998 102.166L60.288 102.131L60.3746 102.093L58.75 98.4375ZM48.75 105L51.4718 107.931L51.5261 107.881L51.5784 107.828L48.75 105ZM41.25 114.688L37.7534 112.745L37.7338 112.78L37.7148 112.816L41.25 114.688ZM41.5625 138.125L38.1705 140.245L38.2491 140.371L38.3369 140.49L41.5625 138.125ZM50.3125 145.938L48.2844 149.385L48.3269 149.41L48.3699 149.434L50.3125 145.938ZM62.1875 149.688L61.7895 153.668L61.7989 153.669L61.8083 153.669L62.1875 149.688ZM75 148.438L76.1494 152.269L76.2673 152.233L76.3828 152.191L75 148.438ZM86.25 141.562L88.8965 144.562L88.9447 144.519L88.9915 144.475L86.25 141.562ZM95.3125 130.938L98.6407 133.156L98.6681 133.115L98.6945 133.073L95.3125 130.938ZM100.625 119.375L104.479 120.446L104.486 120.419L104.493 120.393L100.625 119.375ZM100.938 109.688L97.1144 110.864L97.1281 110.908L97.1428 110.952L100.938 109.688ZM89.6875 98.4375L88.2249 102.161L88.2832 102.183L88.3422 102.204L89.6875 98.4375ZM23.125 58.4375L26.1979 60.9982C28.1173 58.6949 28.7768 55.2582 28.9922 51.812L25 51.5625L21.0078 51.313C20.8065 54.5334 20.216 55.6801 20.0521 55.8768L23.125 58.4375ZM25 51.5625L28.9726 52.0299C29.3584 48.7506 30.1399 45.0081 31.3461 40.7864L27.5 39.6875L23.6539 38.5886C22.3601 43.1169 21.4749 47.291 21.0274 51.0951L25 51.5625ZM27.5 39.6875L31.2947 40.9524C32.6052 37.0211 34.801 32.7789 37.9711 28.2218L34.6875 25.9375L31.4039 23.6532C27.9074 28.6795 25.3115 33.6039 23.7053 38.4226L27.5 39.6875ZM34.6875 25.9375L37.9711 28.2218C40.8311 24.1106 45.6827 19.9952 52.8801 15.9966L50.9375 12.5L48.9949 9.00337C41.1923 13.3382 35.2106 18.1811 31.4039 23.6532L34.6875 25.9375ZM50.9375 12.5L52.9221 15.973C59.8469 12.0159 66.4229 9.72802 72.6688 8.97094L72.1875 5L71.7062 1.02906C64.2021 1.93865 56.6114 4.65076 48.9529 9.02703L50.9375 12.5ZM72.1875 5L72.6688 8.97094C79.1164 8.18941 85.2063 8.48891 90.9661 9.83286L91.875 5.9375L92.7839 2.04214C86.0437 0.46942 79.0086 0.14392 71.7062 1.02906L72.1875 5ZM91.875 5.9375L90.9661 9.83286C96.8437 11.2043 102.309 13.3537 107.376 16.2772L109.375 12.8125L111.374 9.34776C105.608 6.02134 99.4063 3.58735 92.7839 2.04214L91.875 5.9375ZM109.375 12.8125L107.432 16.3091C112.867 19.3282 117.771 22.6341 122.155 26.2208L124.688 23.125L127.22 20.0292C122.438 16.1159 117.133 12.5468 111.318 9.31587L109.375 12.8125ZM124.688 23.125L122.189 26.2485C124.631 28.2022 126.772 31.1989 128.463 35.5201L132.188 34.0625L135.912 32.6049C133.853 27.3427 130.994 23.0478 127.186 20.0015L124.688 23.125ZM132.188 34.0625L128.485 35.577C130.235 39.8539 131.623 44.7829 132.625 50.3907L136.562 49.6875L140.5 48.9843C139.418 42.9254 137.89 37.4378 135.89 32.548L132.188 34.0625ZM136.562 49.6875L132.625 50.3907C133.638 56.0638 134.35 62.0601 134.758 68.3825L138.75 68.125L142.742 67.8675C142.316 61.2732 141.57 54.9778 140.5 48.9843L136.562 49.6875ZM138.75 68.125L134.77 68.523C135.387 74.6899 135.797 80.7489 136.002 86.7003L140 86.5625L143.998 86.4247C143.786 80.2928 143.363 74.0601 142.73 67.727L138.75 68.125ZM140 86.5625L136.003 86.7053C136.209 92.4987 136.312 97.8672 136.312 102.812H140.312H144.312C144.312 97.7578 144.207 92.293 143.997 86.4197L140 86.5625ZM140.312 102.812L136.316 102.986C136.53 107.892 136.96 112.072 137.64 115.472L141.562 114.688L145.485 113.903C144.915 111.053 144.512 107.317 144.309 102.639L140.312 102.812ZM141.562 114.688L137.627 115.403C138.535 120.394 140.149 124.848 142.546 128.682L145.938 126.562L149.329 124.443C147.559 121.61 146.257 118.147 145.498 113.972L141.562 114.688ZM145.938 126.562L142.609 128.781C144.852 132.146 147.349 135.105 150.11 137.636L152.812 134.688L155.515 131.739C153.276 129.686 151.19 127.229 149.266 124.344L145.938 126.562ZM152.812 134.688L150.252 137.76C152.951 140.01 155.707 141.857 158.524 143.265L160.312 139.688L162.101 136.11C159.918 135.018 157.674 133.532 155.373 131.615L152.812 134.688ZM160.312 139.688L158.524 143.265C161.13 144.568 163.499 145.591 165.61 146.295L166.875 142.5L168.14 138.705C166.501 138.159 164.495 137.307 162.101 136.11L160.312 139.688ZM166.875 142.5L165.086 146.078C166.56 146.815 168.048 147.376 169.528 147.672L170.312 143.75L171.097 139.828C170.494 139.707 169.69 139.435 168.664 138.922L166.875 142.5ZM170.312 143.75L168.827 147.464C171.02 148.341 174.783 149.312 177.516 146.578L174.688 143.75L171.859 140.922C172.078 140.702 172.335 140.548 172.578 140.46C172.807 140.377 172.956 140.375 172.969 140.375C172.977 140.375 172.887 140.375 172.674 140.325C172.464 140.276 172.175 140.187 171.798 140.036L170.312 143.75ZM174.688 143.75L171.011 142.174C169.782 145.043 168.669 147.468 167.672 149.461L171.25 151.25L174.828 153.039C175.914 150.866 177.093 148.291 178.364 145.326L174.688 143.75ZM171.25 151.25L167.672 149.461C166.61 151.585 165.74 153.432 165.073 154.987L168.75 156.562L172.427 158.138C173.01 156.777 173.807 155.081 174.828 153.039L171.25 151.25ZM168.75 156.562L165.172 154.774C164.363 156.391 163.685 157.646 163.133 158.567L166.562 160.625L169.992 162.683C170.69 161.52 171.47 160.067 172.328 158.351L168.75 156.562ZM166.562 160.625L162.985 158.836C162.48 159.846 161.901 160.752 161.252 161.564L164.375 164.062L167.498 166.561C168.516 165.289 169.395 163.904 170.14 162.414L166.562 160.625ZM164.375 164.062L160.945 162.005C160.455 162.822 159.753 163.798 158.802 164.939L161.875 167.5L164.948 170.061C166.08 168.702 167.045 167.386 167.805 166.12L164.375 164.062ZM161.875 167.5L158.802 164.939C157.691 166.273 156.589 167.706 155.495 169.238L158.75 171.562L162.005 173.887C162.995 172.502 163.976 171.227 164.948 170.061L161.875 167.5ZM158.75 171.562L160.186 167.829C157.677 166.864 155.267 165.707 152.953 164.357L150.938 167.812L148.922 171.268C151.608 172.834 154.406 174.177 157.314 175.296L158.75 171.562ZM150.938 167.812L153.085 164.438C150.813 162.992 148.754 161.653 146.906 160.422L144.688 163.75L142.469 167.078C144.371 168.347 146.479 169.717 148.79 171.187L150.938 167.812ZM144.688 163.75L146.835 160.375C144.635 158.975 142.656 157.589 140.893 156.218L138.438 159.375L135.982 162.532C137.969 164.078 140.157 165.608 142.54 167.125L144.688 163.75ZM138.438 159.375L140.893 156.218C139.222 154.917 137.628 153.42 136.115 151.718L133.125 154.375L130.135 157.032C131.955 159.08 133.903 160.916 135.982 162.532L138.438 159.375ZM133.125 154.375L136.135 151.741C134.669 150.066 133.1 148.287 131.427 146.405L128.438 149.062L125.448 151.72C127.108 153.588 128.664 155.351 130.115 157.009L133.125 154.375ZM128.438 149.062L131.595 146.607C130.34 144.993 129.249 143.181 128.329 141.157L124.688 142.812L121.046 144.468C122.209 147.027 123.619 149.382 125.28 151.518L128.438 149.062ZM124.688 142.812L121.056 141.136C120.112 143.181 117.52 146.616 112.737 151.607L115.625 154.375L118.513 157.143C123.313 152.134 126.763 147.861 128.319 144.489L124.688 142.812ZM115.625 154.375L112.676 151.672C108.449 156.284 102.776 160.618 95.5574 164.628L97.5 168.125L99.4426 171.622C107.224 167.299 113.635 162.466 118.574 157.078L115.625 154.375ZM97.5 168.125L95.633 164.587C88.5774 168.311 80.2501 171.007 70.5924 172.617L71.25 176.562L71.9076 180.508C82.2499 178.784 91.4226 175.855 99.367 171.663L97.5 168.125ZM71.25 176.562L70.5788 172.619C61.582 174.151 51.4254 173.134 40.0149 169.33L38.75 173.125L37.4851 176.92C49.8246 181.033 61.3347 182.308 71.9212 180.506L71.25 176.562ZM38.75 173.125L39.9691 169.315C35.1334 167.768 30.5852 165.544 26.3158 162.633L24.0625 165.938L21.8092 169.242C26.7065 172.581 31.95 175.149 37.5309 176.935L38.75 173.125ZM24.0625 165.938L26.4152 162.703C22.1703 159.615 18.5097 155.955 15.4224 151.71L12.1875 154.062L8.95256 156.415C12.532 161.337 16.7881 165.593 21.7098 169.172L24.0625 165.938ZM12.1875 154.062L15.4924 151.809C12.6551 147.648 10.5464 142.881 9.19307 137.467L5.3125 138.438L1.43193 139.408C2.99522 145.661 5.46992 151.311 8.88259 156.316L12.1875 154.062ZM5.3125 138.438L9.22954 137.627C8.10825 132.208 8.17316 126.093 9.54732 119.222L5.625 118.438L1.70268 117.653C0.160175 125.366 0.016748 132.584 1.39546 139.248L5.3125 138.438ZM5.625 118.438L9.54732 119.222C10.9105 112.406 13.3076 106.84 16.6375 102.4L13.4375 100L10.2375 97.6C6.06743 103.16 3.25616 109.886 1.70268 117.653L5.625 118.438ZM13.4375 100L16.6375 102.4C20.0862 97.8017 24.1813 94.0935 28.933 91.2425L26.875 87.8125L24.817 84.3825C19.152 87.7815 14.2888 92.1983 10.2375 97.6L13.4375 100ZM26.875 87.8125L28.933 91.2425C33.781 88.3336 39.2523 86.078 45.3745 84.4981L44.375 80.625L43.3755 76.7519C36.5811 78.5053 30.3856 81.0414 24.817 84.3825L26.875 87.8125ZM44.375 80.625L45.3745 84.4981C51.6166 82.8873 58.0697 81.7772 64.7371 81.1711L64.375 77.1875L64.0129 73.2039C56.9303 73.8478 50.0501 75.0294 43.3755 76.7519L44.375 80.625ZM64.375 77.1875L64.5287 81.1845C69.6878 80.9861 74.8493 81.2835 80.0168 82.0785L80.625 78.125L81.2332 74.1715C75.5673 73.2998 69.8955 72.9722 64.2213 73.1905L64.375 77.1875ZM80.625 78.125L79.9095 82.0605C84.1118 82.8245 88.5837 84.2718 93.3334 86.4488L95 82.8125L96.6666 79.1762C91.4163 76.7698 86.3049 75.0921 81.3405 74.1895L80.625 78.125ZM95 82.8125L93.4615 86.5048C97.8241 88.3226 101.563 91.1369 104.704 95.0168L107.812 92.5L110.921 89.9832C106.979 85.1131 102.176 81.4691 96.5385 79.1202L95 82.8125ZM107.812 92.5L111.812 92.4245C111.603 81.3402 111.183 72.4727 110.544 65.8647L106.562 66.25L102.581 66.6353C103.192 72.944 103.606 81.5764 103.813 92.5755L107.812 92.5ZM106.562 66.25L110.555 66.0005C110.137 59.312 109.715 54.1216 109.285 50.4701L105.312 50.9375L101.34 51.4049C101.744 54.8368 102.155 59.8546 102.57 66.4995L106.562 66.25ZM105.312 50.9375L109.235 50.153C108.401 45.9845 107.62 42.7831 106.87 40.783L103.125 42.1875L99.3797 43.592C99.8796 44.9252 100.557 47.5572 101.39 51.722L105.312 50.9375ZM103.125 42.1875L106.38 39.8625C105.369 38.4467 104.248 36.8165 103.016 34.9687L99.6875 37.1875L96.3593 39.4063C97.6274 41.3085 98.798 43.0116 99.8701 44.5125L103.125 42.1875ZM99.6875 37.1875L103.184 35.2449C101.911 32.9539 100.261 30.9291 98.259 29.1772L95.625 32.1875L92.991 35.1978C94.3222 36.3626 95.3803 37.6711 96.1909 39.1301L99.6875 37.1875ZM95.625 32.1875L98.4534 29.3591C96.3664 27.2721 93.8245 25.6456 90.9135 24.4327L89.375 28.125L87.8365 31.8173C89.9255 32.6877 91.5503 33.7696 92.7966 35.0159L95.625 32.1875ZM89.375 28.125L90.9135 24.4327C87.7319 23.1071 84.1803 22.645 80.3755 22.8828L80.625 26.875L80.8745 30.8672C83.7364 30.6883 86.0181 31.0596 87.8365 31.8173L89.375 28.125ZM80.625 26.875L80.3901 22.8819C76.2911 23.123 72.6012 24.234 69.6887 26.564L72.1875 29.6875L74.6863 32.811C75.9405 31.8076 77.8756 31.0436 80.8599 30.8681L80.625 26.875ZM72.1875 29.6875L69.6887 26.564C67.2004 28.5547 65.1857 30.9416 63.6759 33.7096L67.1875 35.625L70.6991 37.5404C71.6893 35.725 73.008 34.1536 74.6863 32.811L72.1875 29.6875ZM67.1875 35.625L63.6098 33.8361C62.3235 36.4087 61.5736 39.2001 61.3263 42.1678L65.3125 42.5L69.2987 42.8322C69.468 40.7999 69.9681 39.008 70.7652 37.4139L67.1875 35.625ZM65.3125 42.5L61.3263 42.1678C61.0941 44.9539 61.1941 47.5624 61.7203 49.9302L65.625 49.0625L69.5297 48.1948C69.2226 46.8126 69.1142 45.0461 69.2987 42.8322L65.3125 42.5ZM65.625 49.0625L61.8303 50.3274C62.3493 51.8844 63.0967 53.4815 64.027 55.1096L67.5 53.125L70.973 51.1404C70.2366 49.8518 69.7341 48.7406 69.4197 47.7976L65.625 49.0625ZM67.5 53.125L64.1718 55.3438C65.1939 56.8769 66.5281 58.4349 68.1091 60.0159L70.9375 57.1875L73.7659 54.3591C72.4303 53.0234 71.4728 51.8731 70.8282 50.9062L67.5 53.125ZM70.9375 57.1875L68.1091 60.0159C70.0328 61.9397 72.4977 63.447 75.3365 64.6298L76.875 60.9375L78.4135 57.2452C76.2523 56.3447 74.7589 55.352 73.7659 54.3591L70.9375 57.1875ZM76.875 60.9375L76.3576 56.9711C71.5846 57.5937 67.3397 58.1113 63.6208 58.5245L64.0625 62.5L64.5042 66.4755C68.2853 66.0554 72.5821 65.5313 77.3924 64.9039L76.875 60.9375ZM64.0625 62.5L63.8406 58.5062C60.0049 58.7193 56.6401 59.042 53.7668 59.484L54.375 63.4375L54.9832 67.391C57.5265 66.9997 60.6201 66.6974 64.2844 66.4938L64.0625 62.5ZM54.375 63.4375L53.8463 59.4726C50.7581 59.8844 48.1079 60.1896 45.8879 60.3914L46.25 64.375L46.6121 68.3586C48.9755 68.1437 51.7419 67.824 54.9037 67.4024L54.375 63.4375ZM46.25 64.375L45.8879 60.3914C43.4123 60.6165 40.5563 61.0595 37.3405 61.7027L38.125 65.625L38.9095 69.5473C41.9437 68.9405 44.5044 68.5502 46.6121 68.3586L46.25 64.375ZM38.125 65.625L37.5168 61.6715C34.8015 62.0893 31.4625 62.611 27.5011 63.2364L28.125 67.1875L28.7489 71.1386C32.7041 70.514 36.0319 69.9941 38.7332 69.5785L38.125 65.625ZM28.125 67.1875L27.5011 63.2364C23.4751 63.8721 18.8362 64.716 13.5905 65.7652L14.375 69.6875L15.1595 73.6098C20.3304 72.5756 24.8582 71.7529 28.7489 71.1386L28.125 67.1875ZM14.375 69.6875L17.412 72.2907C18.672 70.8207 19.83 69.4522 20.8854 68.1857L17.8125 65.625L14.7396 63.0643C13.7117 64.2978 12.578 65.6376 11.338 67.0843L14.375 69.6875ZM17.8125 65.625L21.0674 67.95C22.0802 66.5321 22.9729 65.3433 23.7485 64.3738L20.625 61.875L17.5015 59.3762C16.6105 60.49 15.6282 61.8012 14.5576 63.3L17.8125 65.625ZM20.625 61.875L23.9532 64.0938C24.7302 62.9283 25.4957 61.8772 26.2485 60.9363L23.125 58.4375L20.0015 55.9387C19.0876 57.0811 18.1864 58.3217 17.2968 59.6562L20.625 61.875ZM70 95.625L69.7781 91.6312C65.5009 91.8688 61.2775 92.9369 57.1254 94.7823L58.75 98.4375L60.3746 102.093C63.7225 100.605 66.9991 99.7979 70.2219 99.6188L70 95.625ZM58.75 98.4375L57.3002 94.7095C53.0201 96.374 49.2203 98.8728 45.9216 102.172L48.75 105L51.5784 107.828C54.113 105.294 56.9799 103.418 60.1998 102.166L58.75 98.4375ZM48.75 105L46.0282 102.069C42.7797 105.085 40.0254 108.655 37.7534 112.745L41.25 114.688L44.7466 116.63C46.6413 113.22 48.887 110.331 51.4718 107.931L48.75 105ZM41.25 114.688L37.7148 112.816C35.5072 116.986 34.4375 121.596 34.4375 126.562H38.4375H42.4375C42.4375 122.779 43.2428 119.472 44.7852 116.559L41.25 114.688ZM38.4375 126.562H34.4375C34.4375 131.6 35.646 136.206 38.1705 140.245L41.5625 138.125L44.9545 136.005C43.3124 133.378 42.4375 130.275 42.4375 126.562H38.4375ZM41.5625 138.125L38.3369 140.49C40.9692 144.08 44.3029 147.043 48.2844 149.385L50.3125 145.938L52.3406 142.49C49.2388 140.665 46.7392 138.42 44.7881 135.76L41.5625 138.125ZM50.3125 145.938L48.3699 149.434C52.5845 151.776 57.067 153.195 61.7895 153.668L62.1875 149.688L62.5855 145.707C58.9747 145.346 55.5405 144.266 52.2551 142.441L50.3125 145.938ZM62.1875 149.688L61.8083 153.669C66.6923 154.135 71.4825 153.669 76.1494 152.269L75 148.438L73.8506 144.606C70.1842 145.706 66.4327 146.074 62.5667 145.706L62.1875 149.688ZM75 148.438L76.3828 152.191C80.8577 150.542 85.028 147.975 88.8965 144.562L86.25 141.562L83.6035 138.563C80.3886 141.4 77.059 143.416 73.6172 144.684L75 148.438ZM86.25 141.562L88.9915 144.475C92.7371 140.95 95.9594 137.178 98.6407 133.156L95.3125 130.938L91.9843 128.719C89.6656 132.197 86.8462 135.508 83.5085 138.65L86.25 141.562ZM95.3125 130.938L98.6945 133.073C101.362 128.85 103.314 124.639 104.479 120.446L100.625 119.375L96.7709 118.304C95.8524 121.611 94.2628 125.109 91.9305 128.802L95.3125 130.938ZM100.625 119.375L104.493 120.393C105.632 116.067 105.913 111.963 104.732 108.423L100.938 109.688L97.1428 110.952C97.6291 112.412 97.7016 114.766 96.7567 118.357L100.625 119.375ZM100.938 109.688L104.761 108.511C102.685 101.764 97.9266 97.1326 91.0328 94.6705L89.6875 98.4375L88.3422 102.204C93.115 103.909 95.857 106.777 97.1144 110.864L100.938 109.688ZM89.6875 98.4375L91.1501 94.7145C84.6975 92.1796 77.5453 91.1873 69.7718 91.6315L70 95.625L70.2282 99.6185C77.038 99.2294 83.0108 100.112 88.2249 102.161L89.6875 98.4375Z" fill="black" mask="url(#path-1-outside-1_112_42)"/>
</svg>
