<?xml version="1.0" encoding="UTF-8"?>
<svg version="1.1" xmlns="http://www.w3.org/2000/svg" width="320" height="320">
<path d="M0 0 C0.70745361 0.00499512 1.41490723 0.00999023 2.14379883 0.01513672 C10.01192627 0.27816346 13.58661164 2.96161164 18.9375 8.3125 C22.99079147 14.21872472 25.28942004 20.22378031 24.125 27.5 C21.86288228 35.93755289 17.28953949 41.19294557 11.16940308 47.21749878 C10.25424175 48.14202005 9.33908043 49.06654131 8.39618695 50.01907837 C5.87250455 52.5676716 3.33061764 55.09737787 0.7851553 57.62419271 C-1.96336646 60.3590888 -4.69450383 63.11125533 -7.42796326 65.8611908 C-12.77888856 71.23874778 -18.14585012 76.60001617 -23.51880331 81.95555501 C-27.88654626 86.30972868 -32.24837456 90.66974645 -36.60607529 95.03396988 C-37.22710238 95.65591637 -37.84812947 96.27786286 -38.48797556 96.91865621 C-39.7496905 98.18228957 -41.01139201 99.44593635 -42.27308021 100.70959641 C-54.09508749 112.54869888 -65.93539045 124.36936603 -77.78206466 136.18377866 C-87.9390531 146.31396184 -98.08020763 156.45977291 -108.20996094 166.6171875 C-119.98310578 178.42246631 -131.76595495 190.2179185 -143.56438148 201.99793446 C-144.8232769 203.25491865 -146.08215983 204.51191536 -147.34103012 205.76892471 C-147.96036786 206.3873368 -148.5797056 207.00574888 -149.21781114 207.64290073 C-153.57438194 211.99429845 -157.92396693 216.35260419 -162.27087784 220.71364975 C-167.5710069 226.03063413 -172.88174983 231.3367386 -178.20624204 236.62932949 C-180.92085435 239.32821004 -183.6305169 242.03159734 -186.32731056 244.74829292 C-189.2545817 247.69683841 -192.20466432 250.62146099 -195.15750122 253.54440308 C-196.00110769 254.40139388 -196.84471417 255.25838468 -197.71388447 256.1413449 C-203.8287363 262.13678209 -210.15208201 266.2842389 -218.875 267 C-226.04164535 266.53670171 -232.08427828 263.83851734 -236.875 258.5 C-241.07955064 253.32516845 -242.25663478 249.42899714 -242.3125 242.75 C-242.36180664 241.73292969 -242.36180664 241.73292969 -242.41210938 240.6953125 C-242.49500008 232.76794715 -238.08028113 227.59137591 -232.79384708 222.04132366 C-231.15293063 220.3840133 -229.50380571 218.73480468 -227.84815979 217.09220886 C-226.93748888 216.17685798 -226.02681798 215.26150711 -225.08855098 214.31841832 C-222.57557743 211.79298004 -220.0534051 209.2769121 -217.52953947 206.76236546 C-214.80356909 204.04320366 -212.08627146 201.3153979 -209.36782837 198.5887146 C-204.04747688 193.25504394 -198.71907197 187.92949021 -193.3877067 182.60683086 C-189.05503479 178.2809408 -184.72530806 173.95212331 -180.39765739 169.6212101 C-179.78116162 169.00425463 -179.16466586 168.38729916 -178.5294884 167.75164807 C-177.27703275 166.49823323 -176.02458383 165.24481168 -174.77214157 163.99138347 C-163.0365687 152.24726239 -151.29182918 140.51234314 -139.54392057 128.78056357 C-129.46506001 118.71511234 -119.39410026 108.64181216 -109.32885742 98.56274414 C-97.63524335 86.85307571 -85.93677837 75.14828897 -74.2305283 63.4512518 C-72.9823987 62.20407785 -71.73427537 60.95689763 -70.48615837 59.70971107 C-69.87208099 59.09609652 -69.25800361 58.48248197 -68.62531783 57.85027304 C-64.29918797 53.52673299 -59.97654809 49.1997225 -55.65524483 44.87135887 C-50.39019072 39.59789148 -45.11982592 34.32980183 -39.84257884 29.06853511 C-37.15048673 26.38432694 -34.46084844 23.69777675 -31.77765846 21.00466728 C-28.86946588 18.08588621 -25.94979848 15.17886223 -23.02882385 12.27287292 C-22.18203003 11.41938694 -21.33523621 10.56590095 -20.46278197 9.68655175 C-14.09925754 3.38639239 -9.22536674 -0.08512701 0 0 Z " fill="#FFFFF" transform="translate(257.875,15.5)"/>
<path d="M0 0 C5.54926751 3.28590167 10.64951266 8.02406288 12.5625 14.3125 C12.86722271 17.00421726 13.0639624 19.55412114 13.125 22.25 C13.15182861 22.91813721 13.17865723 23.58627441 13.20629883 24.2746582 C13.12369613 35.38268934 3.47521111 42.83081219 -3.83374023 50.09692383 C-4.99776244 51.26501674 -6.16114671 52.43374567 -7.32394409 53.60305786 C-10.4678031 56.76053382 -13.62100547 59.90851823 -16.77644229 63.0544188 C-20.08398835 66.35434271 -23.38417825 69.66161053 -26.68556213 72.96769714 C-32.2274559 78.51503949 -37.77562427 84.05604717 -43.32739258 89.59350586 C-49.74110536 95.99087781 -56.14391769 102.39900707 -62.54120678 108.81279927 C-68.04241382 114.32762752 -73.5494546 119.83657899 -79.06139904 125.34067553 C-82.34992539 128.62453095 -85.63640564 131.9103652 -88.91763115 135.20151711 C-92.00118547 138.29374855 -95.09200777 141.37852761 -98.18854904 144.45775223 C-99.32227066 145.58751372 -100.45345942 146.71982365 -101.58188438 147.85487556 C-103.1250479 149.40626281 -104.67719959 150.94807446 -106.23191833 152.48786926 C-107.0974404 153.35226026 -107.96296247 154.21665125 -108.85471249 155.10723591 C-114.0891755 159.57658279 -118.67647067 160.80187832 -125.4375 160.6875 C-126.46617187 160.70490234 -126.46617187 160.70490234 -127.515625 160.72265625 C-133.60676705 160.6877833 -137.53864209 158.9853034 -142.0625 155 C-147.15244202 149.24032877 -149.52389836 144.8021434 -149.8125 137.1875 C-149.86148438 136.31867188 -149.91046875 135.44984375 -149.9609375 134.5546875 C-148.23226845 123.8472598 -140.57605593 116.73094247 -133.1965332 109.42456055 C-132.04843928 108.26967913 -130.90140904 107.11373945 -129.75535583 105.95683289 C-126.6592214 102.83803348 -123.54763598 99.73510316 -120.43221307 96.63558555 C-117.16222579 93.37832378 -113.90453079 90.10880376 -110.64482117 86.84126282 C-105.17036413 81.35772855 -99.68549391 75.88477639 -94.19458008 70.41772461 C-87.86120207 64.11155393 -81.54603717 57.78757352 -75.24002963 51.45404214 C-69.80954763 46.00081522 -64.36931358 40.55746126 -58.92092198 35.12212783 C-55.6737826 31.88275333 -52.43004375 28.64016743 -49.19509315 25.38861656 C-46.15213406 22.33113361 -43.09704851 19.28629338 -40.03248024 16.25047493 C-38.91484201 15.13940531 -37.80135723 14.02413823 -36.6925621 12.90424347 C-26.63943322 2.75985618 -14.84984686 -6.82365845 0 0 Z " fill="#000000" transform="translate(291.4375,143.6875)"/>
</svg>
